<svg width="22" height="22" viewBox="0 0 22 22" fill="none" xmlns="http://www.w3.org/2000/svg">
<g id="akar-icons:vk-fill" clip-path="url(#clip0_195_1128)">
<g id="Group">
<path id="Vector" fill-rule="evenodd" clip-rule="evenodd" d="M21.4958 5.45591C21.648 4.95541 21.4958 4.58691 20.7671 4.58691H18.3608C17.7485 4.58691 17.4662 4.905 17.3131 5.25608C17.3131 5.25608 16.0893 8.18575 14.3559 10.0887C13.7949 10.6406 13.5401 10.8157 13.2339 10.8157C13.0808 10.8157 12.8507 10.6406 12.8507 10.1392V5.45591C12.8507 4.85458 12.6821 4.58691 12.1724 4.58691H8.38842C8.00617 4.58691 7.77608 4.86558 7.77608 5.1305C7.77608 5.69975 8.64325 5.83175 8.73217 7.43408V10.9156C8.73217 11.6792 8.59192 11.8176 8.28575 11.8176C7.46992 11.8176 5.48533 8.87416 4.30742 5.50633C4.07917 4.85091 3.84817 4.58691 3.23308 4.58691H0.825C0.1375 4.58691 0 4.905 0 5.25608C0 5.88125 0.815833 8.98691 3.79958 13.0945C5.78875 15.8995 8.58917 17.4202 11.1403 17.4202C12.6702 17.4202 12.859 17.0829 12.859 16.5008V14.3806C12.859 13.705 13.0038 13.5702 13.4888 13.5702C13.8463 13.5702 14.4577 13.7462 15.8858 15.0983C17.5175 16.7016 17.7861 17.4202 18.7046 17.4202H21.1108C21.7983 17.4202 22.143 17.0829 21.945 16.4156C21.7268 15.7519 20.9477 14.7885 19.9146 13.6454C19.3536 12.9946 18.5121 12.2933 18.2563 11.9422C17.8998 11.4922 18.0015 11.2914 18.2563 10.8908C18.2563 10.8908 21.1897 6.83366 21.4949 5.45591H21.4958Z" fill="#817F7F"/>
</g>
</g>
<defs>
<clipPath id="clip0_195_1128">
<rect width="22" height="22" fill="white"/>
</clipPath>
</defs>
</svg>
