<svg width="22" height="22" viewBox="0 0 22 22" fill="none" xmlns="http://www.w3.org/2000/svg">
<g clip-path="url(#clip0_195_1124)">
<path d="M21.5422 5.96571C21.4176 5.52134 21.175 5.11903 20.84 4.80155C20.4956 4.4743 20.0735 4.24021 19.6135 4.12138C17.892 3.66763 10.9951 3.66763 10.9951 3.66763C8.11978 3.63492 5.2452 3.7788 2.38756 4.09846C1.92757 4.22608 1.50625 4.46539 1.16106 4.79513C0.821898 5.12146 0.576232 5.52388 0.447899 5.9648C0.139618 7.62556 -0.0101666 9.31186 0.000565751 11.001C-0.0104342 12.6885 0.138982 14.3743 0.447899 16.0371C0.573482 16.4762 0.818232 16.8768 1.15831 17.2004C1.4984 17.524 1.9219 17.7577 2.38756 17.8815C4.13198 18.3343 10.9951 18.3343 10.9951 18.3343C13.874 18.367 16.7522 18.2232 19.6135 17.9035C20.0735 17.7846 20.4956 17.5505 20.84 17.2233C21.1792 16.8997 21.4203 16.4973 21.5413 16.0591C21.8576 14.399 22.0114 12.712 22.0005 11.022C22.0243 9.32493 21.8707 7.62998 21.5422 5.9648V5.96571ZM8.80239 14.1396V7.86321L14.5407 11.0019L8.80239 14.1396Z" fill="#817F7F"/>
</g>
<defs>
<clipPath id="clip0_195_1124">
<rect width="22" height="22" fill="white"/>
</clipPath>
</defs>
</svg>
